<?xml version="1.0" standalone="no"?>
<!DOCTYPE svg PUBLIC "-//W3C//DTD SVG 20010904//EN"
 "http://www.w3.org/TR/2001/REC-SVG-20010904/DTD/svg10.dtd">
<svg version="1.0" xmlns="http://www.w3.org/2000/svg"
 width="256.000000pt" height="256.000000pt" viewBox="0 0 256.000000 256.000000"
 preserveAspectRatio="xMidYMid meet">

<g transform="translate(0.000000,256.000000) scale(0.100000,-0.100000)"
fill="#000000" stroke="none">
<path d="M1237 2273 l-25 -48 79 -73 c87 -81 176 -206 219 -310 63 -149 76
-338 34 -493 l-17 -66 49 -76 c27 -42 81 -127 120 -189 39 -62 82 -118 95
-125 13 -6 62 -30 109 -52 210 -100 351 -265 414 -485 14 -48 28 -92 32 -97 7
-12 71 -12 79 1 8 13 -13 50 -370 675 -161 281 -349 616 -420 745 -70 129
-164 298 -208 375 -44 77 -95 167 -113 200 -18 33 -37 61 -43 63 -5 2 -21 -18
-34 -45z"/>
<path d="M1126 2068 c-26 -39 -782 -1362 -869 -1520 -20 -36 -37 -69 -37 -73
0 -11 106 5 163 24 80 28 169 76 198 108 30 31 202 309 453 728 190 316 220
365 225 365 3 0 22 -26 42 -58 153 -241 142 -227 152 -201 15 39 11 198 -8
269 -19 73 -58 155 -109 234 -41 60 -148 166 -168 166 -8 0 -27 -19 -42 -42z"/>
<path d="M1205 1405 l-56 -96 58 -99 c32 -55 63 -100 68 -100 17 1 117 180
111 197 -10 26 -106 182 -116 188 -5 3 -34 -38 -65 -90z"/>
<path d="M1032 1118 c-27 -46 -105 -173 -172 -282 -67 -109 -124 -205 -127
-212 -4 -11 17 -14 109 -14 97 0 117 3 130 18 18 20 215 342 224 366 4 10 -15
52 -50 111 -31 52 -59 95 -61 95 -2 0 -26 -37 -53 -82z"/>
<path d="M1401 1096 c-28 -46 -51 -87 -51 -90 0 -6 157 -275 217 -373 13 -22
20 -23 128 -23 63 0 115 4 115 8 0 4 -55 98 -123 208 -176 284 -221 354 -229
354 -4 0 -29 -38 -57 -84z"/>
<path d="M1262 878 c-8 -10 -142 -230 -159 -260 -2 -5 73 -8 167 -8 160 0 172
1 166 18 -12 31 -150 262 -157 262 -3 0 -11 -6 -17 -12z"/>
<path d="M1891 693 c13 -21 47 -71 77 -112 29 -41 51 -76 48 -78 -2 -2 -245
-5 -541 -6 l-536 -2 -46 -53 c-51 -60 -138 -129 -201 -161 -23 -12 -42 -24
-42 -26 0 -3 356 -5 790 -5 908 0 809 -14 764 112 -53 147 -126 245 -243 323
-84 55 -100 57 -70 8z"/>
<path d="M552 454 c-109 -53 -203 -79 -323 -89 l-86 -7 -22 -39 c-35 -62 -27
-69 81 -69 139 0 264 29 383 89 92 47 205 130 205 152 0 5 -33 9 -72 9 -66 0
-82 -4 -166 -46z"/>
</g>
</svg>
